%TF.GenerationSoftware,KiCad,Pcbnew,7.0.10-7.0.10~ubuntu22.04.1*%
%TF.CreationDate,2024-03-21T08:58:37+05:30*%
%TF.ProjectId,Smart Watch,536d6172-7420-4576-9174-63682e6b6963,rev?*%
%TF.SameCoordinates,Original*%
%TF.FileFunction,Legend,Top*%
%TF.FilePolarity,Positive*%
%FSLAX46Y46*%
G04 Gerber Fmt 4.6, Leading zero omitted, Abs format (unit mm)*
G04 Created by KiCad (PCBNEW 7.0.10-7.0.10~ubuntu22.04.1) date 2024-03-21 08:58:37*
%MOMM*%
%LPD*%
G01*
G04 APERTURE LIST*
%ADD10C,0.150000*%
%ADD11C,0.100000*%
%ADD12C,0.120000*%
%ADD13C,0.254000*%
%ADD14R,1.727200X1.727200*%
%ADD15O,1.727200X1.727200*%
G04 APERTURE END LIST*
D10*
X119018207Y-71529580D02*
X118970588Y-71577200D01*
X118970588Y-71577200D02*
X118827731Y-71624819D01*
X118827731Y-71624819D02*
X118732493Y-71624819D01*
X118732493Y-71624819D02*
X118589636Y-71577200D01*
X118589636Y-71577200D02*
X118494398Y-71481961D01*
X118494398Y-71481961D02*
X118446779Y-71386723D01*
X118446779Y-71386723D02*
X118399160Y-71196247D01*
X118399160Y-71196247D02*
X118399160Y-71053390D01*
X118399160Y-71053390D02*
X118446779Y-70862914D01*
X118446779Y-70862914D02*
X118494398Y-70767676D01*
X118494398Y-70767676D02*
X118589636Y-70672438D01*
X118589636Y-70672438D02*
X118732493Y-70624819D01*
X118732493Y-70624819D02*
X118827731Y-70624819D01*
X118827731Y-70624819D02*
X118970588Y-70672438D01*
X118970588Y-70672438D02*
X119018207Y-70720057D01*
X119875350Y-71624819D02*
X119875350Y-71101009D01*
X119875350Y-71101009D02*
X119827731Y-71005771D01*
X119827731Y-71005771D02*
X119732493Y-70958152D01*
X119732493Y-70958152D02*
X119542017Y-70958152D01*
X119542017Y-70958152D02*
X119446779Y-71005771D01*
X119875350Y-71577200D02*
X119780112Y-71624819D01*
X119780112Y-71624819D02*
X119542017Y-71624819D01*
X119542017Y-71624819D02*
X119446779Y-71577200D01*
X119446779Y-71577200D02*
X119399160Y-71481961D01*
X119399160Y-71481961D02*
X119399160Y-71386723D01*
X119399160Y-71386723D02*
X119446779Y-71291485D01*
X119446779Y-71291485D02*
X119542017Y-71243866D01*
X119542017Y-71243866D02*
X119780112Y-71243866D01*
X119780112Y-71243866D02*
X119875350Y-71196247D01*
X120351541Y-71624819D02*
X120351541Y-70624819D01*
X120351541Y-71005771D02*
X120446779Y-70958152D01*
X120446779Y-70958152D02*
X120637255Y-70958152D01*
X120637255Y-70958152D02*
X120732493Y-71005771D01*
X120732493Y-71005771D02*
X120780112Y-71053390D01*
X120780112Y-71053390D02*
X120827731Y-71148628D01*
X120827731Y-71148628D02*
X120827731Y-71434342D01*
X120827731Y-71434342D02*
X120780112Y-71529580D01*
X120780112Y-71529580D02*
X120732493Y-71577200D01*
X120732493Y-71577200D02*
X120637255Y-71624819D01*
X120637255Y-71624819D02*
X120446779Y-71624819D01*
X120446779Y-71624819D02*
X120351541Y-71577200D01*
X121399160Y-71624819D02*
X121303922Y-71577200D01*
X121303922Y-71577200D02*
X121256303Y-71481961D01*
X121256303Y-71481961D02*
X121256303Y-70624819D01*
X122161065Y-71577200D02*
X122065827Y-71624819D01*
X122065827Y-71624819D02*
X121875351Y-71624819D01*
X121875351Y-71624819D02*
X121780113Y-71577200D01*
X121780113Y-71577200D02*
X121732494Y-71481961D01*
X121732494Y-71481961D02*
X121732494Y-71101009D01*
X121732494Y-71101009D02*
X121780113Y-71005771D01*
X121780113Y-71005771D02*
X121875351Y-70958152D01*
X121875351Y-70958152D02*
X122065827Y-70958152D01*
X122065827Y-70958152D02*
X122161065Y-71005771D01*
X122161065Y-71005771D02*
X122208684Y-71101009D01*
X122208684Y-71101009D02*
X122208684Y-71196247D01*
X122208684Y-71196247D02*
X121732494Y-71291485D01*
X123351542Y-71339104D02*
X123827732Y-71339104D01*
X123256304Y-71624819D02*
X123589637Y-70624819D01*
X123589637Y-70624819D02*
X123922970Y-71624819D01*
X126584648Y-130974819D02*
X126251315Y-130498628D01*
X126013220Y-130974819D02*
X126013220Y-129974819D01*
X126013220Y-129974819D02*
X126394172Y-129974819D01*
X126394172Y-129974819D02*
X126489410Y-130022438D01*
X126489410Y-130022438D02*
X126537029Y-130070057D01*
X126537029Y-130070057D02*
X126584648Y-130165295D01*
X126584648Y-130165295D02*
X126584648Y-130308152D01*
X126584648Y-130308152D02*
X126537029Y-130403390D01*
X126537029Y-130403390D02*
X126489410Y-130451009D01*
X126489410Y-130451009D02*
X126394172Y-130498628D01*
X126394172Y-130498628D02*
X126013220Y-130498628D01*
X127394172Y-130927200D02*
X127298934Y-130974819D01*
X127298934Y-130974819D02*
X127108458Y-130974819D01*
X127108458Y-130974819D02*
X127013220Y-130927200D01*
X127013220Y-130927200D02*
X126965601Y-130831961D01*
X126965601Y-130831961D02*
X126965601Y-130451009D01*
X126965601Y-130451009D02*
X127013220Y-130355771D01*
X127013220Y-130355771D02*
X127108458Y-130308152D01*
X127108458Y-130308152D02*
X127298934Y-130308152D01*
X127298934Y-130308152D02*
X127394172Y-130355771D01*
X127394172Y-130355771D02*
X127441791Y-130451009D01*
X127441791Y-130451009D02*
X127441791Y-130546247D01*
X127441791Y-130546247D02*
X126965601Y-130641485D01*
X128298934Y-130974819D02*
X128298934Y-130451009D01*
X128298934Y-130451009D02*
X128251315Y-130355771D01*
X128251315Y-130355771D02*
X128156077Y-130308152D01*
X128156077Y-130308152D02*
X127965601Y-130308152D01*
X127965601Y-130308152D02*
X127870363Y-130355771D01*
X128298934Y-130927200D02*
X128203696Y-130974819D01*
X128203696Y-130974819D02*
X127965601Y-130974819D01*
X127965601Y-130974819D02*
X127870363Y-130927200D01*
X127870363Y-130927200D02*
X127822744Y-130831961D01*
X127822744Y-130831961D02*
X127822744Y-130736723D01*
X127822744Y-130736723D02*
X127870363Y-130641485D01*
X127870363Y-130641485D02*
X127965601Y-130593866D01*
X127965601Y-130593866D02*
X128203696Y-130593866D01*
X128203696Y-130593866D02*
X128298934Y-130546247D01*
X128917982Y-130974819D02*
X128822744Y-130927200D01*
X128822744Y-130927200D02*
X128775125Y-130831961D01*
X128775125Y-130831961D02*
X128775125Y-129974819D01*
X129917983Y-129974819D02*
X130489411Y-129974819D01*
X130203697Y-130974819D02*
X130203697Y-129974819D01*
X130822745Y-130974819D02*
X130822745Y-130308152D01*
X130822745Y-129974819D02*
X130775126Y-130022438D01*
X130775126Y-130022438D02*
X130822745Y-130070057D01*
X130822745Y-130070057D02*
X130870364Y-130022438D01*
X130870364Y-130022438D02*
X130822745Y-129974819D01*
X130822745Y-129974819D02*
X130822745Y-130070057D01*
X131298935Y-130974819D02*
X131298935Y-130308152D01*
X131298935Y-130403390D02*
X131346554Y-130355771D01*
X131346554Y-130355771D02*
X131441792Y-130308152D01*
X131441792Y-130308152D02*
X131584649Y-130308152D01*
X131584649Y-130308152D02*
X131679887Y-130355771D01*
X131679887Y-130355771D02*
X131727506Y-130451009D01*
X131727506Y-130451009D02*
X131727506Y-130974819D01*
X131727506Y-130451009D02*
X131775125Y-130355771D01*
X131775125Y-130355771D02*
X131870363Y-130308152D01*
X131870363Y-130308152D02*
X132013220Y-130308152D01*
X132013220Y-130308152D02*
X132108459Y-130355771D01*
X132108459Y-130355771D02*
X132156078Y-130451009D01*
X132156078Y-130451009D02*
X132156078Y-130974819D01*
X133013220Y-130927200D02*
X132917982Y-130974819D01*
X132917982Y-130974819D02*
X132727506Y-130974819D01*
X132727506Y-130974819D02*
X132632268Y-130927200D01*
X132632268Y-130927200D02*
X132584649Y-130831961D01*
X132584649Y-130831961D02*
X132584649Y-130451009D01*
X132584649Y-130451009D02*
X132632268Y-130355771D01*
X132632268Y-130355771D02*
X132727506Y-130308152D01*
X132727506Y-130308152D02*
X132917982Y-130308152D01*
X132917982Y-130308152D02*
X133013220Y-130355771D01*
X133013220Y-130355771D02*
X133060839Y-130451009D01*
X133060839Y-130451009D02*
X133060839Y-130546247D01*
X133060839Y-130546247D02*
X132584649Y-130641485D01*
X123965599Y-132489580D02*
X123917980Y-132537200D01*
X123917980Y-132537200D02*
X123775123Y-132584819D01*
X123775123Y-132584819D02*
X123679885Y-132584819D01*
X123679885Y-132584819D02*
X123537028Y-132537200D01*
X123537028Y-132537200D02*
X123441790Y-132441961D01*
X123441790Y-132441961D02*
X123394171Y-132346723D01*
X123394171Y-132346723D02*
X123346552Y-132156247D01*
X123346552Y-132156247D02*
X123346552Y-132013390D01*
X123346552Y-132013390D02*
X123394171Y-131822914D01*
X123394171Y-131822914D02*
X123441790Y-131727676D01*
X123441790Y-131727676D02*
X123537028Y-131632438D01*
X123537028Y-131632438D02*
X123679885Y-131584819D01*
X123679885Y-131584819D02*
X123775123Y-131584819D01*
X123775123Y-131584819D02*
X123917980Y-131632438D01*
X123917980Y-131632438D02*
X123965599Y-131680057D01*
X124537028Y-132584819D02*
X124441790Y-132537200D01*
X124441790Y-132537200D02*
X124394171Y-132441961D01*
X124394171Y-132441961D02*
X124394171Y-131584819D01*
X125060838Y-132584819D02*
X124965600Y-132537200D01*
X124965600Y-132537200D02*
X124917981Y-132489580D01*
X124917981Y-132489580D02*
X124870362Y-132394342D01*
X124870362Y-132394342D02*
X124870362Y-132108628D01*
X124870362Y-132108628D02*
X124917981Y-132013390D01*
X124917981Y-132013390D02*
X124965600Y-131965771D01*
X124965600Y-131965771D02*
X125060838Y-131918152D01*
X125060838Y-131918152D02*
X125203695Y-131918152D01*
X125203695Y-131918152D02*
X125298933Y-131965771D01*
X125298933Y-131965771D02*
X125346552Y-132013390D01*
X125346552Y-132013390D02*
X125394171Y-132108628D01*
X125394171Y-132108628D02*
X125394171Y-132394342D01*
X125394171Y-132394342D02*
X125346552Y-132489580D01*
X125346552Y-132489580D02*
X125298933Y-132537200D01*
X125298933Y-132537200D02*
X125203695Y-132584819D01*
X125203695Y-132584819D02*
X125060838Y-132584819D01*
X126251314Y-132537200D02*
X126156076Y-132584819D01*
X126156076Y-132584819D02*
X125965600Y-132584819D01*
X125965600Y-132584819D02*
X125870362Y-132537200D01*
X125870362Y-132537200D02*
X125822743Y-132489580D01*
X125822743Y-132489580D02*
X125775124Y-132394342D01*
X125775124Y-132394342D02*
X125775124Y-132108628D01*
X125775124Y-132108628D02*
X125822743Y-132013390D01*
X125822743Y-132013390D02*
X125870362Y-131965771D01*
X125870362Y-131965771D02*
X125965600Y-131918152D01*
X125965600Y-131918152D02*
X126156076Y-131918152D01*
X126156076Y-131918152D02*
X126251314Y-131965771D01*
X126679886Y-132584819D02*
X126679886Y-131584819D01*
X126775124Y-132203866D02*
X127060838Y-132584819D01*
X127060838Y-131918152D02*
X126679886Y-132299104D01*
X128251315Y-132584819D02*
X128251315Y-131584819D01*
X128251315Y-131584819D02*
X128584648Y-132299104D01*
X128584648Y-132299104D02*
X128917981Y-131584819D01*
X128917981Y-131584819D02*
X128917981Y-132584819D01*
X129537029Y-132584819D02*
X129441791Y-132537200D01*
X129441791Y-132537200D02*
X129394172Y-132489580D01*
X129394172Y-132489580D02*
X129346553Y-132394342D01*
X129346553Y-132394342D02*
X129346553Y-132108628D01*
X129346553Y-132108628D02*
X129394172Y-132013390D01*
X129394172Y-132013390D02*
X129441791Y-131965771D01*
X129441791Y-131965771D02*
X129537029Y-131918152D01*
X129537029Y-131918152D02*
X129679886Y-131918152D01*
X129679886Y-131918152D02*
X129775124Y-131965771D01*
X129775124Y-131965771D02*
X129822743Y-132013390D01*
X129822743Y-132013390D02*
X129870362Y-132108628D01*
X129870362Y-132108628D02*
X129870362Y-132394342D01*
X129870362Y-132394342D02*
X129822743Y-132489580D01*
X129822743Y-132489580D02*
X129775124Y-132537200D01*
X129775124Y-132537200D02*
X129679886Y-132584819D01*
X129679886Y-132584819D02*
X129537029Y-132584819D01*
X130727505Y-132584819D02*
X130727505Y-131584819D01*
X130727505Y-132537200D02*
X130632267Y-132584819D01*
X130632267Y-132584819D02*
X130441791Y-132584819D01*
X130441791Y-132584819D02*
X130346553Y-132537200D01*
X130346553Y-132537200D02*
X130298934Y-132489580D01*
X130298934Y-132489580D02*
X130251315Y-132394342D01*
X130251315Y-132394342D02*
X130251315Y-132108628D01*
X130251315Y-132108628D02*
X130298934Y-132013390D01*
X130298934Y-132013390D02*
X130346553Y-131965771D01*
X130346553Y-131965771D02*
X130441791Y-131918152D01*
X130441791Y-131918152D02*
X130632267Y-131918152D01*
X130632267Y-131918152D02*
X130727505Y-131965771D01*
X131632267Y-131918152D02*
X131632267Y-132584819D01*
X131203696Y-131918152D02*
X131203696Y-132441961D01*
X131203696Y-132441961D02*
X131251315Y-132537200D01*
X131251315Y-132537200D02*
X131346553Y-132584819D01*
X131346553Y-132584819D02*
X131489410Y-132584819D01*
X131489410Y-132584819D02*
X131584648Y-132537200D01*
X131584648Y-132537200D02*
X131632267Y-132489580D01*
X132251315Y-132584819D02*
X132156077Y-132537200D01*
X132156077Y-132537200D02*
X132108458Y-132441961D01*
X132108458Y-132441961D02*
X132108458Y-131584819D01*
X133013220Y-132537200D02*
X132917982Y-132584819D01*
X132917982Y-132584819D02*
X132727506Y-132584819D01*
X132727506Y-132584819D02*
X132632268Y-132537200D01*
X132632268Y-132537200D02*
X132584649Y-132441961D01*
X132584649Y-132441961D02*
X132584649Y-132061009D01*
X132584649Y-132061009D02*
X132632268Y-131965771D01*
X132632268Y-131965771D02*
X132727506Y-131918152D01*
X132727506Y-131918152D02*
X132917982Y-131918152D01*
X132917982Y-131918152D02*
X133013220Y-131965771D01*
X133013220Y-131965771D02*
X133060839Y-132061009D01*
X133060839Y-132061009D02*
X133060839Y-132156247D01*
X133060839Y-132156247D02*
X132584649Y-132251485D01*
X138131779Y-90944819D02*
X138131779Y-91754342D01*
X138131779Y-91754342D02*
X138179398Y-91849580D01*
X138179398Y-91849580D02*
X138227017Y-91897200D01*
X138227017Y-91897200D02*
X138322255Y-91944819D01*
X138322255Y-91944819D02*
X138512731Y-91944819D01*
X138512731Y-91944819D02*
X138607969Y-91897200D01*
X138607969Y-91897200D02*
X138655588Y-91849580D01*
X138655588Y-91849580D02*
X138703207Y-91754342D01*
X138703207Y-91754342D02*
X138703207Y-90944819D01*
X139179398Y-91944819D02*
X139179398Y-90944819D01*
X139179398Y-90944819D02*
X139560350Y-90944819D01*
X139560350Y-90944819D02*
X139655588Y-90992438D01*
X139655588Y-90992438D02*
X139703207Y-91040057D01*
X139703207Y-91040057D02*
X139750826Y-91135295D01*
X139750826Y-91135295D02*
X139750826Y-91278152D01*
X139750826Y-91278152D02*
X139703207Y-91373390D01*
X139703207Y-91373390D02*
X139655588Y-91421009D01*
X139655588Y-91421009D02*
X139560350Y-91468628D01*
X139560350Y-91468628D02*
X139179398Y-91468628D01*
X100666779Y-38081009D02*
X101000112Y-38081009D01*
X101142969Y-38604819D02*
X100666779Y-38604819D01*
X100666779Y-38604819D02*
X100666779Y-37604819D01*
X100666779Y-37604819D02*
X101142969Y-37604819D01*
X101523922Y-38557200D02*
X101666779Y-38604819D01*
X101666779Y-38604819D02*
X101904874Y-38604819D01*
X101904874Y-38604819D02*
X102000112Y-38557200D01*
X102000112Y-38557200D02*
X102047731Y-38509580D01*
X102047731Y-38509580D02*
X102095350Y-38414342D01*
X102095350Y-38414342D02*
X102095350Y-38319104D01*
X102095350Y-38319104D02*
X102047731Y-38223866D01*
X102047731Y-38223866D02*
X102000112Y-38176247D01*
X102000112Y-38176247D02*
X101904874Y-38128628D01*
X101904874Y-38128628D02*
X101714398Y-38081009D01*
X101714398Y-38081009D02*
X101619160Y-38033390D01*
X101619160Y-38033390D02*
X101571541Y-37985771D01*
X101571541Y-37985771D02*
X101523922Y-37890533D01*
X101523922Y-37890533D02*
X101523922Y-37795295D01*
X101523922Y-37795295D02*
X101571541Y-37700057D01*
X101571541Y-37700057D02*
X101619160Y-37652438D01*
X101619160Y-37652438D02*
X101714398Y-37604819D01*
X101714398Y-37604819D02*
X101952493Y-37604819D01*
X101952493Y-37604819D02*
X102095350Y-37652438D01*
X102523922Y-38604819D02*
X102523922Y-37604819D01*
X102523922Y-37604819D02*
X102904874Y-37604819D01*
X102904874Y-37604819D02*
X103000112Y-37652438D01*
X103000112Y-37652438D02*
X103047731Y-37700057D01*
X103047731Y-37700057D02*
X103095350Y-37795295D01*
X103095350Y-37795295D02*
X103095350Y-37938152D01*
X103095350Y-37938152D02*
X103047731Y-38033390D01*
X103047731Y-38033390D02*
X103000112Y-38081009D01*
X103000112Y-38081009D02*
X102904874Y-38128628D01*
X102904874Y-38128628D02*
X102523922Y-38128628D01*
X103666779Y-38033390D02*
X103571541Y-37985771D01*
X103571541Y-37985771D02*
X103523922Y-37938152D01*
X103523922Y-37938152D02*
X103476303Y-37842914D01*
X103476303Y-37842914D02*
X103476303Y-37795295D01*
X103476303Y-37795295D02*
X103523922Y-37700057D01*
X103523922Y-37700057D02*
X103571541Y-37652438D01*
X103571541Y-37652438D02*
X103666779Y-37604819D01*
X103666779Y-37604819D02*
X103857255Y-37604819D01*
X103857255Y-37604819D02*
X103952493Y-37652438D01*
X103952493Y-37652438D02*
X104000112Y-37700057D01*
X104000112Y-37700057D02*
X104047731Y-37795295D01*
X104047731Y-37795295D02*
X104047731Y-37842914D01*
X104047731Y-37842914D02*
X104000112Y-37938152D01*
X104000112Y-37938152D02*
X103952493Y-37985771D01*
X103952493Y-37985771D02*
X103857255Y-38033390D01*
X103857255Y-38033390D02*
X103666779Y-38033390D01*
X103666779Y-38033390D02*
X103571541Y-38081009D01*
X103571541Y-38081009D02*
X103523922Y-38128628D01*
X103523922Y-38128628D02*
X103476303Y-38223866D01*
X103476303Y-38223866D02*
X103476303Y-38414342D01*
X103476303Y-38414342D02*
X103523922Y-38509580D01*
X103523922Y-38509580D02*
X103571541Y-38557200D01*
X103571541Y-38557200D02*
X103666779Y-38604819D01*
X103666779Y-38604819D02*
X103857255Y-38604819D01*
X103857255Y-38604819D02*
X103952493Y-38557200D01*
X103952493Y-38557200D02*
X104000112Y-38509580D01*
X104000112Y-38509580D02*
X104047731Y-38414342D01*
X104047731Y-38414342D02*
X104047731Y-38223866D01*
X104047731Y-38223866D02*
X104000112Y-38128628D01*
X104000112Y-38128628D02*
X103952493Y-38081009D01*
X103952493Y-38081009D02*
X103857255Y-38033390D01*
X104428684Y-37700057D02*
X104476303Y-37652438D01*
X104476303Y-37652438D02*
X104571541Y-37604819D01*
X104571541Y-37604819D02*
X104809636Y-37604819D01*
X104809636Y-37604819D02*
X104904874Y-37652438D01*
X104904874Y-37652438D02*
X104952493Y-37700057D01*
X104952493Y-37700057D02*
X105000112Y-37795295D01*
X105000112Y-37795295D02*
X105000112Y-37890533D01*
X105000112Y-37890533D02*
X104952493Y-38033390D01*
X104952493Y-38033390D02*
X104381065Y-38604819D01*
X104381065Y-38604819D02*
X105000112Y-38604819D01*
X105857255Y-37604819D02*
X105666779Y-37604819D01*
X105666779Y-37604819D02*
X105571541Y-37652438D01*
X105571541Y-37652438D02*
X105523922Y-37700057D01*
X105523922Y-37700057D02*
X105428684Y-37842914D01*
X105428684Y-37842914D02*
X105381065Y-38033390D01*
X105381065Y-38033390D02*
X105381065Y-38414342D01*
X105381065Y-38414342D02*
X105428684Y-38509580D01*
X105428684Y-38509580D02*
X105476303Y-38557200D01*
X105476303Y-38557200D02*
X105571541Y-38604819D01*
X105571541Y-38604819D02*
X105762017Y-38604819D01*
X105762017Y-38604819D02*
X105857255Y-38557200D01*
X105857255Y-38557200D02*
X105904874Y-38509580D01*
X105904874Y-38509580D02*
X105952493Y-38414342D01*
X105952493Y-38414342D02*
X105952493Y-38176247D01*
X105952493Y-38176247D02*
X105904874Y-38081009D01*
X105904874Y-38081009D02*
X105857255Y-38033390D01*
X105857255Y-38033390D02*
X105762017Y-37985771D01*
X105762017Y-37985771D02*
X105571541Y-37985771D01*
X105571541Y-37985771D02*
X105476303Y-38033390D01*
X105476303Y-38033390D02*
X105428684Y-38081009D01*
X105428684Y-38081009D02*
X105381065Y-38176247D01*
X106809636Y-37604819D02*
X106619160Y-37604819D01*
X106619160Y-37604819D02*
X106523922Y-37652438D01*
X106523922Y-37652438D02*
X106476303Y-37700057D01*
X106476303Y-37700057D02*
X106381065Y-37842914D01*
X106381065Y-37842914D02*
X106333446Y-38033390D01*
X106333446Y-38033390D02*
X106333446Y-38414342D01*
X106333446Y-38414342D02*
X106381065Y-38509580D01*
X106381065Y-38509580D02*
X106428684Y-38557200D01*
X106428684Y-38557200D02*
X106523922Y-38604819D01*
X106523922Y-38604819D02*
X106714398Y-38604819D01*
X106714398Y-38604819D02*
X106809636Y-38557200D01*
X106809636Y-38557200D02*
X106857255Y-38509580D01*
X106857255Y-38509580D02*
X106904874Y-38414342D01*
X106904874Y-38414342D02*
X106904874Y-38176247D01*
X106904874Y-38176247D02*
X106857255Y-38081009D01*
X106857255Y-38081009D02*
X106809636Y-38033390D01*
X106809636Y-38033390D02*
X106714398Y-37985771D01*
X106714398Y-37985771D02*
X106523922Y-37985771D01*
X106523922Y-37985771D02*
X106428684Y-38033390D01*
X106428684Y-38033390D02*
X106381065Y-38081009D01*
X106381065Y-38081009D02*
X106333446Y-38176247D01*
X107333446Y-38223866D02*
X108095351Y-38223866D01*
X108762017Y-37604819D02*
X108857255Y-37604819D01*
X108857255Y-37604819D02*
X108952493Y-37652438D01*
X108952493Y-37652438D02*
X109000112Y-37700057D01*
X109000112Y-37700057D02*
X109047731Y-37795295D01*
X109047731Y-37795295D02*
X109095350Y-37985771D01*
X109095350Y-37985771D02*
X109095350Y-38223866D01*
X109095350Y-38223866D02*
X109047731Y-38414342D01*
X109047731Y-38414342D02*
X109000112Y-38509580D01*
X109000112Y-38509580D02*
X108952493Y-38557200D01*
X108952493Y-38557200D02*
X108857255Y-38604819D01*
X108857255Y-38604819D02*
X108762017Y-38604819D01*
X108762017Y-38604819D02*
X108666779Y-38557200D01*
X108666779Y-38557200D02*
X108619160Y-38509580D01*
X108619160Y-38509580D02*
X108571541Y-38414342D01*
X108571541Y-38414342D02*
X108523922Y-38223866D01*
X108523922Y-38223866D02*
X108523922Y-37985771D01*
X108523922Y-37985771D02*
X108571541Y-37795295D01*
X108571541Y-37795295D02*
X108619160Y-37700057D01*
X108619160Y-37700057D02*
X108666779Y-37652438D01*
X108666779Y-37652438D02*
X108762017Y-37604819D01*
X110047731Y-38604819D02*
X109476303Y-38604819D01*
X109762017Y-38604819D02*
X109762017Y-37604819D01*
X109762017Y-37604819D02*
X109666779Y-37747676D01*
X109666779Y-37747676D02*
X109571541Y-37842914D01*
X109571541Y-37842914D02*
X109476303Y-37890533D01*
X133527969Y-74164819D02*
X133051779Y-74164819D01*
X133051779Y-74164819D02*
X133051779Y-73164819D01*
X133861303Y-74164819D02*
X133861303Y-73164819D01*
X133861303Y-73164819D02*
X134194636Y-73879104D01*
X134194636Y-73879104D02*
X134527969Y-73164819D01*
X134527969Y-73164819D02*
X134527969Y-74164819D01*
X134908922Y-73164819D02*
X135575588Y-73164819D01*
X135575588Y-73164819D02*
X135147017Y-74164819D01*
X136099398Y-73593390D02*
X136004160Y-73545771D01*
X136004160Y-73545771D02*
X135956541Y-73498152D01*
X135956541Y-73498152D02*
X135908922Y-73402914D01*
X135908922Y-73402914D02*
X135908922Y-73355295D01*
X135908922Y-73355295D02*
X135956541Y-73260057D01*
X135956541Y-73260057D02*
X136004160Y-73212438D01*
X136004160Y-73212438D02*
X136099398Y-73164819D01*
X136099398Y-73164819D02*
X136289874Y-73164819D01*
X136289874Y-73164819D02*
X136385112Y-73212438D01*
X136385112Y-73212438D02*
X136432731Y-73260057D01*
X136432731Y-73260057D02*
X136480350Y-73355295D01*
X136480350Y-73355295D02*
X136480350Y-73402914D01*
X136480350Y-73402914D02*
X136432731Y-73498152D01*
X136432731Y-73498152D02*
X136385112Y-73545771D01*
X136385112Y-73545771D02*
X136289874Y-73593390D01*
X136289874Y-73593390D02*
X136099398Y-73593390D01*
X136099398Y-73593390D02*
X136004160Y-73641009D01*
X136004160Y-73641009D02*
X135956541Y-73688628D01*
X135956541Y-73688628D02*
X135908922Y-73783866D01*
X135908922Y-73783866D02*
X135908922Y-73974342D01*
X135908922Y-73974342D02*
X135956541Y-74069580D01*
X135956541Y-74069580D02*
X136004160Y-74117200D01*
X136004160Y-74117200D02*
X136099398Y-74164819D01*
X136099398Y-74164819D02*
X136289874Y-74164819D01*
X136289874Y-74164819D02*
X136385112Y-74117200D01*
X136385112Y-74117200D02*
X136432731Y-74069580D01*
X136432731Y-74069580D02*
X136480350Y-73974342D01*
X136480350Y-73974342D02*
X136480350Y-73783866D01*
X136480350Y-73783866D02*
X136432731Y-73688628D01*
X136432731Y-73688628D02*
X136385112Y-73641009D01*
X136385112Y-73641009D02*
X136289874Y-73593390D01*
X137099398Y-73164819D02*
X137194636Y-73164819D01*
X137194636Y-73164819D02*
X137289874Y-73212438D01*
X137289874Y-73212438D02*
X137337493Y-73260057D01*
X137337493Y-73260057D02*
X137385112Y-73355295D01*
X137385112Y-73355295D02*
X137432731Y-73545771D01*
X137432731Y-73545771D02*
X137432731Y-73783866D01*
X137432731Y-73783866D02*
X137385112Y-73974342D01*
X137385112Y-73974342D02*
X137337493Y-74069580D01*
X137337493Y-74069580D02*
X137289874Y-74117200D01*
X137289874Y-74117200D02*
X137194636Y-74164819D01*
X137194636Y-74164819D02*
X137099398Y-74164819D01*
X137099398Y-74164819D02*
X137004160Y-74117200D01*
X137004160Y-74117200D02*
X136956541Y-74069580D01*
X136956541Y-74069580D02*
X136908922Y-73974342D01*
X136908922Y-73974342D02*
X136861303Y-73783866D01*
X136861303Y-73783866D02*
X136861303Y-73545771D01*
X136861303Y-73545771D02*
X136908922Y-73355295D01*
X136908922Y-73355295D02*
X136956541Y-73260057D01*
X136956541Y-73260057D02*
X137004160Y-73212438D01*
X137004160Y-73212438D02*
X137099398Y-73164819D01*
X138337493Y-73164819D02*
X137861303Y-73164819D01*
X137861303Y-73164819D02*
X137813684Y-73641009D01*
X137813684Y-73641009D02*
X137861303Y-73593390D01*
X137861303Y-73593390D02*
X137956541Y-73545771D01*
X137956541Y-73545771D02*
X138194636Y-73545771D01*
X138194636Y-73545771D02*
X138289874Y-73593390D01*
X138289874Y-73593390D02*
X138337493Y-73641009D01*
X138337493Y-73641009D02*
X138385112Y-73736247D01*
X138385112Y-73736247D02*
X138385112Y-73974342D01*
X138385112Y-73974342D02*
X138337493Y-74069580D01*
X138337493Y-74069580D02*
X138289874Y-74117200D01*
X138289874Y-74117200D02*
X138194636Y-74164819D01*
X138194636Y-74164819D02*
X137956541Y-74164819D01*
X137956541Y-74164819D02*
X137861303Y-74117200D01*
X137861303Y-74117200D02*
X137813684Y-74069580D01*
X101238207Y-128679580D02*
X101190588Y-128727200D01*
X101190588Y-128727200D02*
X101047731Y-128774819D01*
X101047731Y-128774819D02*
X100952493Y-128774819D01*
X100952493Y-128774819D02*
X100809636Y-128727200D01*
X100809636Y-128727200D02*
X100714398Y-128631961D01*
X100714398Y-128631961D02*
X100666779Y-128536723D01*
X100666779Y-128536723D02*
X100619160Y-128346247D01*
X100619160Y-128346247D02*
X100619160Y-128203390D01*
X100619160Y-128203390D02*
X100666779Y-128012914D01*
X100666779Y-128012914D02*
X100714398Y-127917676D01*
X100714398Y-127917676D02*
X100809636Y-127822438D01*
X100809636Y-127822438D02*
X100952493Y-127774819D01*
X100952493Y-127774819D02*
X101047731Y-127774819D01*
X101047731Y-127774819D02*
X101190588Y-127822438D01*
X101190588Y-127822438D02*
X101238207Y-127870057D01*
X102095350Y-128774819D02*
X102095350Y-128251009D01*
X102095350Y-128251009D02*
X102047731Y-128155771D01*
X102047731Y-128155771D02*
X101952493Y-128108152D01*
X101952493Y-128108152D02*
X101762017Y-128108152D01*
X101762017Y-128108152D02*
X101666779Y-128155771D01*
X102095350Y-128727200D02*
X102000112Y-128774819D01*
X102000112Y-128774819D02*
X101762017Y-128774819D01*
X101762017Y-128774819D02*
X101666779Y-128727200D01*
X101666779Y-128727200D02*
X101619160Y-128631961D01*
X101619160Y-128631961D02*
X101619160Y-128536723D01*
X101619160Y-128536723D02*
X101666779Y-128441485D01*
X101666779Y-128441485D02*
X101762017Y-128393866D01*
X101762017Y-128393866D02*
X102000112Y-128393866D01*
X102000112Y-128393866D02*
X102095350Y-128346247D01*
X102571541Y-128774819D02*
X102571541Y-127774819D01*
X102571541Y-128155771D02*
X102666779Y-128108152D01*
X102666779Y-128108152D02*
X102857255Y-128108152D01*
X102857255Y-128108152D02*
X102952493Y-128155771D01*
X102952493Y-128155771D02*
X103000112Y-128203390D01*
X103000112Y-128203390D02*
X103047731Y-128298628D01*
X103047731Y-128298628D02*
X103047731Y-128584342D01*
X103047731Y-128584342D02*
X103000112Y-128679580D01*
X103000112Y-128679580D02*
X102952493Y-128727200D01*
X102952493Y-128727200D02*
X102857255Y-128774819D01*
X102857255Y-128774819D02*
X102666779Y-128774819D01*
X102666779Y-128774819D02*
X102571541Y-128727200D01*
X103619160Y-128774819D02*
X103523922Y-128727200D01*
X103523922Y-128727200D02*
X103476303Y-128631961D01*
X103476303Y-128631961D02*
X103476303Y-127774819D01*
X104381065Y-128727200D02*
X104285827Y-128774819D01*
X104285827Y-128774819D02*
X104095351Y-128774819D01*
X104095351Y-128774819D02*
X104000113Y-128727200D01*
X104000113Y-128727200D02*
X103952494Y-128631961D01*
X103952494Y-128631961D02*
X103952494Y-128251009D01*
X103952494Y-128251009D02*
X104000113Y-128155771D01*
X104000113Y-128155771D02*
X104095351Y-128108152D01*
X104095351Y-128108152D02*
X104285827Y-128108152D01*
X104285827Y-128108152D02*
X104381065Y-128155771D01*
X104381065Y-128155771D02*
X104428684Y-128251009D01*
X104428684Y-128251009D02*
X104428684Y-128346247D01*
X104428684Y-128346247D02*
X103952494Y-128441485D01*
X105952494Y-128251009D02*
X106095351Y-128298628D01*
X106095351Y-128298628D02*
X106142970Y-128346247D01*
X106142970Y-128346247D02*
X106190589Y-128441485D01*
X106190589Y-128441485D02*
X106190589Y-128584342D01*
X106190589Y-128584342D02*
X106142970Y-128679580D01*
X106142970Y-128679580D02*
X106095351Y-128727200D01*
X106095351Y-128727200D02*
X106000113Y-128774819D01*
X106000113Y-128774819D02*
X105619161Y-128774819D01*
X105619161Y-128774819D02*
X105619161Y-127774819D01*
X105619161Y-127774819D02*
X105952494Y-127774819D01*
X105952494Y-127774819D02*
X106047732Y-127822438D01*
X106047732Y-127822438D02*
X106095351Y-127870057D01*
X106095351Y-127870057D02*
X106142970Y-127965295D01*
X106142970Y-127965295D02*
X106142970Y-128060533D01*
X106142970Y-128060533D02*
X106095351Y-128155771D01*
X106095351Y-128155771D02*
X106047732Y-128203390D01*
X106047732Y-128203390D02*
X105952494Y-128251009D01*
X105952494Y-128251009D02*
X105619161Y-128251009D01*
X85944104Y-113375839D02*
X85944104Y-112899649D01*
X86229819Y-113471077D02*
X85229819Y-113137744D01*
X85229819Y-113137744D02*
X86229819Y-112804411D01*
X85229819Y-112613934D02*
X85229819Y-112042506D01*
X86229819Y-112328220D02*
X85229819Y-112328220D01*
X86229819Y-111709172D02*
X85563152Y-111709172D01*
X85658390Y-111709172D02*
X85610771Y-111661553D01*
X85610771Y-111661553D02*
X85563152Y-111566315D01*
X85563152Y-111566315D02*
X85563152Y-111423458D01*
X85563152Y-111423458D02*
X85610771Y-111328220D01*
X85610771Y-111328220D02*
X85706009Y-111280601D01*
X85706009Y-111280601D02*
X86229819Y-111280601D01*
X85706009Y-111280601D02*
X85610771Y-111232982D01*
X85610771Y-111232982D02*
X85563152Y-111137744D01*
X85563152Y-111137744D02*
X85563152Y-110994887D01*
X85563152Y-110994887D02*
X85610771Y-110899648D01*
X85610771Y-110899648D02*
X85706009Y-110852029D01*
X85706009Y-110852029D02*
X86229819Y-110852029D01*
X86182200Y-109994887D02*
X86229819Y-110090125D01*
X86229819Y-110090125D02*
X86229819Y-110280601D01*
X86229819Y-110280601D02*
X86182200Y-110375839D01*
X86182200Y-110375839D02*
X86086961Y-110423458D01*
X86086961Y-110423458D02*
X85706009Y-110423458D01*
X85706009Y-110423458D02*
X85610771Y-110375839D01*
X85610771Y-110375839D02*
X85563152Y-110280601D01*
X85563152Y-110280601D02*
X85563152Y-110090125D01*
X85563152Y-110090125D02*
X85610771Y-109994887D01*
X85610771Y-109994887D02*
X85706009Y-109947268D01*
X85706009Y-109947268D02*
X85801247Y-109947268D01*
X85801247Y-109947268D02*
X85896485Y-110423458D01*
X85563152Y-109090125D02*
X86372676Y-109090125D01*
X86372676Y-109090125D02*
X86467914Y-109137744D01*
X86467914Y-109137744D02*
X86515533Y-109185363D01*
X86515533Y-109185363D02*
X86563152Y-109280601D01*
X86563152Y-109280601D02*
X86563152Y-109423458D01*
X86563152Y-109423458D02*
X86515533Y-109518696D01*
X86182200Y-109090125D02*
X86229819Y-109185363D01*
X86229819Y-109185363D02*
X86229819Y-109375839D01*
X86229819Y-109375839D02*
X86182200Y-109471077D01*
X86182200Y-109471077D02*
X86134580Y-109518696D01*
X86134580Y-109518696D02*
X86039342Y-109566315D01*
X86039342Y-109566315D02*
X85753628Y-109566315D01*
X85753628Y-109566315D02*
X85658390Y-109518696D01*
X85658390Y-109518696D02*
X85610771Y-109471077D01*
X85610771Y-109471077D02*
X85563152Y-109375839D01*
X85563152Y-109375839D02*
X85563152Y-109185363D01*
X85563152Y-109185363D02*
X85610771Y-109090125D01*
X86229819Y-108185363D02*
X85706009Y-108185363D01*
X85706009Y-108185363D02*
X85610771Y-108232982D01*
X85610771Y-108232982D02*
X85563152Y-108328220D01*
X85563152Y-108328220D02*
X85563152Y-108518696D01*
X85563152Y-108518696D02*
X85610771Y-108613934D01*
X86182200Y-108185363D02*
X86229819Y-108280601D01*
X86229819Y-108280601D02*
X86229819Y-108518696D01*
X86229819Y-108518696D02*
X86182200Y-108613934D01*
X86182200Y-108613934D02*
X86086961Y-108661553D01*
X86086961Y-108661553D02*
X85991723Y-108661553D01*
X85991723Y-108661553D02*
X85896485Y-108613934D01*
X85896485Y-108613934D02*
X85848866Y-108518696D01*
X85848866Y-108518696D02*
X85848866Y-108280601D01*
X85848866Y-108280601D02*
X85801247Y-108185363D01*
X85229819Y-107804410D02*
X85229819Y-107185363D01*
X85229819Y-107185363D02*
X85610771Y-107518696D01*
X85610771Y-107518696D02*
X85610771Y-107375839D01*
X85610771Y-107375839D02*
X85658390Y-107280601D01*
X85658390Y-107280601D02*
X85706009Y-107232982D01*
X85706009Y-107232982D02*
X85801247Y-107185363D01*
X85801247Y-107185363D02*
X86039342Y-107185363D01*
X86039342Y-107185363D02*
X86134580Y-107232982D01*
X86134580Y-107232982D02*
X86182200Y-107280601D01*
X86182200Y-107280601D02*
X86229819Y-107375839D01*
X86229819Y-107375839D02*
X86229819Y-107661553D01*
X86229819Y-107661553D02*
X86182200Y-107756791D01*
X86182200Y-107756791D02*
X86134580Y-107804410D01*
X85325057Y-106804410D02*
X85277438Y-106756791D01*
X85277438Y-106756791D02*
X85229819Y-106661553D01*
X85229819Y-106661553D02*
X85229819Y-106423458D01*
X85229819Y-106423458D02*
X85277438Y-106328220D01*
X85277438Y-106328220D02*
X85325057Y-106280601D01*
X85325057Y-106280601D02*
X85420295Y-106232982D01*
X85420295Y-106232982D02*
X85515533Y-106232982D01*
X85515533Y-106232982D02*
X85658390Y-106280601D01*
X85658390Y-106280601D02*
X86229819Y-106852029D01*
X86229819Y-106852029D02*
X86229819Y-106232982D01*
X85658390Y-105661553D02*
X85610771Y-105756791D01*
X85610771Y-105756791D02*
X85563152Y-105804410D01*
X85563152Y-105804410D02*
X85467914Y-105852029D01*
X85467914Y-105852029D02*
X85420295Y-105852029D01*
X85420295Y-105852029D02*
X85325057Y-105804410D01*
X85325057Y-105804410D02*
X85277438Y-105756791D01*
X85277438Y-105756791D02*
X85229819Y-105661553D01*
X85229819Y-105661553D02*
X85229819Y-105471077D01*
X85229819Y-105471077D02*
X85277438Y-105375839D01*
X85277438Y-105375839D02*
X85325057Y-105328220D01*
X85325057Y-105328220D02*
X85420295Y-105280601D01*
X85420295Y-105280601D02*
X85467914Y-105280601D01*
X85467914Y-105280601D02*
X85563152Y-105328220D01*
X85563152Y-105328220D02*
X85610771Y-105375839D01*
X85610771Y-105375839D02*
X85658390Y-105471077D01*
X85658390Y-105471077D02*
X85658390Y-105661553D01*
X85658390Y-105661553D02*
X85706009Y-105756791D01*
X85706009Y-105756791D02*
X85753628Y-105804410D01*
X85753628Y-105804410D02*
X85848866Y-105852029D01*
X85848866Y-105852029D02*
X86039342Y-105852029D01*
X86039342Y-105852029D02*
X86134580Y-105804410D01*
X86134580Y-105804410D02*
X86182200Y-105756791D01*
X86182200Y-105756791D02*
X86229819Y-105661553D01*
X86229819Y-105661553D02*
X86229819Y-105471077D01*
X86229819Y-105471077D02*
X86182200Y-105375839D01*
X86182200Y-105375839D02*
X86134580Y-105328220D01*
X86134580Y-105328220D02*
X86039342Y-105280601D01*
X86039342Y-105280601D02*
X85848866Y-105280601D01*
X85848866Y-105280601D02*
X85753628Y-105328220D01*
X85753628Y-105328220D02*
X85706009Y-105375839D01*
X85706009Y-105375839D02*
X85658390Y-105471077D01*
X86229819Y-104852029D02*
X85229819Y-104852029D01*
X85229819Y-104852029D02*
X85229819Y-104471077D01*
X85229819Y-104471077D02*
X85277438Y-104375839D01*
X85277438Y-104375839D02*
X85325057Y-104328220D01*
X85325057Y-104328220D02*
X85420295Y-104280601D01*
X85420295Y-104280601D02*
X85563152Y-104280601D01*
X85563152Y-104280601D02*
X85658390Y-104328220D01*
X85658390Y-104328220D02*
X85706009Y-104375839D01*
X85706009Y-104375839D02*
X85753628Y-104471077D01*
X85753628Y-104471077D02*
X85753628Y-104852029D01*
X99650779Y-93087819D02*
X99650779Y-92087819D01*
X99650779Y-92087819D02*
X99888874Y-92087819D01*
X99888874Y-92087819D02*
X100031731Y-92135438D01*
X100031731Y-92135438D02*
X100126969Y-92230676D01*
X100126969Y-92230676D02*
X100174588Y-92325914D01*
X100174588Y-92325914D02*
X100222207Y-92516390D01*
X100222207Y-92516390D02*
X100222207Y-92659247D01*
X100222207Y-92659247D02*
X100174588Y-92849723D01*
X100174588Y-92849723D02*
X100126969Y-92944961D01*
X100126969Y-92944961D02*
X100031731Y-93040200D01*
X100031731Y-93040200D02*
X99888874Y-93087819D01*
X99888874Y-93087819D02*
X99650779Y-93087819D01*
X100650779Y-93087819D02*
X100650779Y-92421152D01*
X100650779Y-92087819D02*
X100603160Y-92135438D01*
X100603160Y-92135438D02*
X100650779Y-92183057D01*
X100650779Y-92183057D02*
X100698398Y-92135438D01*
X100698398Y-92135438D02*
X100650779Y-92087819D01*
X100650779Y-92087819D02*
X100650779Y-92183057D01*
X101079350Y-93040200D02*
X101174588Y-93087819D01*
X101174588Y-93087819D02*
X101365064Y-93087819D01*
X101365064Y-93087819D02*
X101460302Y-93040200D01*
X101460302Y-93040200D02*
X101507921Y-92944961D01*
X101507921Y-92944961D02*
X101507921Y-92897342D01*
X101507921Y-92897342D02*
X101460302Y-92802104D01*
X101460302Y-92802104D02*
X101365064Y-92754485D01*
X101365064Y-92754485D02*
X101222207Y-92754485D01*
X101222207Y-92754485D02*
X101126969Y-92706866D01*
X101126969Y-92706866D02*
X101079350Y-92611628D01*
X101079350Y-92611628D02*
X101079350Y-92564009D01*
X101079350Y-92564009D02*
X101126969Y-92468771D01*
X101126969Y-92468771D02*
X101222207Y-92421152D01*
X101222207Y-92421152D02*
X101365064Y-92421152D01*
X101365064Y-92421152D02*
X101460302Y-92468771D01*
X101936493Y-92421152D02*
X101936493Y-93421152D01*
X101936493Y-92468771D02*
X102031731Y-92421152D01*
X102031731Y-92421152D02*
X102222207Y-92421152D01*
X102222207Y-92421152D02*
X102317445Y-92468771D01*
X102317445Y-92468771D02*
X102365064Y-92516390D01*
X102365064Y-92516390D02*
X102412683Y-92611628D01*
X102412683Y-92611628D02*
X102412683Y-92897342D01*
X102412683Y-92897342D02*
X102365064Y-92992580D01*
X102365064Y-92992580D02*
X102317445Y-93040200D01*
X102317445Y-93040200D02*
X102222207Y-93087819D01*
X102222207Y-93087819D02*
X102031731Y-93087819D01*
X102031731Y-93087819D02*
X101936493Y-93040200D01*
X102984112Y-93087819D02*
X102888874Y-93040200D01*
X102888874Y-93040200D02*
X102841255Y-92944961D01*
X102841255Y-92944961D02*
X102841255Y-92087819D01*
X103793636Y-93087819D02*
X103793636Y-92564009D01*
X103793636Y-92564009D02*
X103746017Y-92468771D01*
X103746017Y-92468771D02*
X103650779Y-92421152D01*
X103650779Y-92421152D02*
X103460303Y-92421152D01*
X103460303Y-92421152D02*
X103365065Y-92468771D01*
X103793636Y-93040200D02*
X103698398Y-93087819D01*
X103698398Y-93087819D02*
X103460303Y-93087819D01*
X103460303Y-93087819D02*
X103365065Y-93040200D01*
X103365065Y-93040200D02*
X103317446Y-92944961D01*
X103317446Y-92944961D02*
X103317446Y-92849723D01*
X103317446Y-92849723D02*
X103365065Y-92754485D01*
X103365065Y-92754485D02*
X103460303Y-92706866D01*
X103460303Y-92706866D02*
X103698398Y-92706866D01*
X103698398Y-92706866D02*
X103793636Y-92659247D01*
X104174589Y-92421152D02*
X104412684Y-93087819D01*
X104650779Y-92421152D02*
X104412684Y-93087819D01*
X104412684Y-93087819D02*
X104317446Y-93325914D01*
X104317446Y-93325914D02*
X104269827Y-93373533D01*
X104269827Y-93373533D02*
X104174589Y-93421152D01*
X119018207Y-57559580D02*
X118970588Y-57607200D01*
X118970588Y-57607200D02*
X118827731Y-57654819D01*
X118827731Y-57654819D02*
X118732493Y-57654819D01*
X118732493Y-57654819D02*
X118589636Y-57607200D01*
X118589636Y-57607200D02*
X118494398Y-57511961D01*
X118494398Y-57511961D02*
X118446779Y-57416723D01*
X118446779Y-57416723D02*
X118399160Y-57226247D01*
X118399160Y-57226247D02*
X118399160Y-57083390D01*
X118399160Y-57083390D02*
X118446779Y-56892914D01*
X118446779Y-56892914D02*
X118494398Y-56797676D01*
X118494398Y-56797676D02*
X118589636Y-56702438D01*
X118589636Y-56702438D02*
X118732493Y-56654819D01*
X118732493Y-56654819D02*
X118827731Y-56654819D01*
X118827731Y-56654819D02*
X118970588Y-56702438D01*
X118970588Y-56702438D02*
X119018207Y-56750057D01*
X119875350Y-57654819D02*
X119875350Y-57131009D01*
X119875350Y-57131009D02*
X119827731Y-57035771D01*
X119827731Y-57035771D02*
X119732493Y-56988152D01*
X119732493Y-56988152D02*
X119542017Y-56988152D01*
X119542017Y-56988152D02*
X119446779Y-57035771D01*
X119875350Y-57607200D02*
X119780112Y-57654819D01*
X119780112Y-57654819D02*
X119542017Y-57654819D01*
X119542017Y-57654819D02*
X119446779Y-57607200D01*
X119446779Y-57607200D02*
X119399160Y-57511961D01*
X119399160Y-57511961D02*
X119399160Y-57416723D01*
X119399160Y-57416723D02*
X119446779Y-57321485D01*
X119446779Y-57321485D02*
X119542017Y-57273866D01*
X119542017Y-57273866D02*
X119780112Y-57273866D01*
X119780112Y-57273866D02*
X119875350Y-57226247D01*
X120351541Y-57654819D02*
X120351541Y-56654819D01*
X120351541Y-57035771D02*
X120446779Y-56988152D01*
X120446779Y-56988152D02*
X120637255Y-56988152D01*
X120637255Y-56988152D02*
X120732493Y-57035771D01*
X120732493Y-57035771D02*
X120780112Y-57083390D01*
X120780112Y-57083390D02*
X120827731Y-57178628D01*
X120827731Y-57178628D02*
X120827731Y-57464342D01*
X120827731Y-57464342D02*
X120780112Y-57559580D01*
X120780112Y-57559580D02*
X120732493Y-57607200D01*
X120732493Y-57607200D02*
X120637255Y-57654819D01*
X120637255Y-57654819D02*
X120446779Y-57654819D01*
X120446779Y-57654819D02*
X120351541Y-57607200D01*
X121399160Y-57654819D02*
X121303922Y-57607200D01*
X121303922Y-57607200D02*
X121256303Y-57511961D01*
X121256303Y-57511961D02*
X121256303Y-56654819D01*
X122161065Y-57607200D02*
X122065827Y-57654819D01*
X122065827Y-57654819D02*
X121875351Y-57654819D01*
X121875351Y-57654819D02*
X121780113Y-57607200D01*
X121780113Y-57607200D02*
X121732494Y-57511961D01*
X121732494Y-57511961D02*
X121732494Y-57131009D01*
X121732494Y-57131009D02*
X121780113Y-57035771D01*
X121780113Y-57035771D02*
X121875351Y-56988152D01*
X121875351Y-56988152D02*
X122065827Y-56988152D01*
X122065827Y-56988152D02*
X122161065Y-57035771D01*
X122161065Y-57035771D02*
X122208684Y-57131009D01*
X122208684Y-57131009D02*
X122208684Y-57226247D01*
X122208684Y-57226247D02*
X121732494Y-57321485D01*
X123351542Y-57369104D02*
X123827732Y-57369104D01*
X123256304Y-57654819D02*
X123589637Y-56654819D01*
X123589637Y-56654819D02*
X123922970Y-57654819D01*
X138131779Y-112264819D02*
X138131779Y-111264819D01*
X138131779Y-111264819D02*
X138369874Y-111264819D01*
X138369874Y-111264819D02*
X138512731Y-111312438D01*
X138512731Y-111312438D02*
X138607969Y-111407676D01*
X138607969Y-111407676D02*
X138655588Y-111502914D01*
X138655588Y-111502914D02*
X138703207Y-111693390D01*
X138703207Y-111693390D02*
X138703207Y-111836247D01*
X138703207Y-111836247D02*
X138655588Y-112026723D01*
X138655588Y-112026723D02*
X138607969Y-112121961D01*
X138607969Y-112121961D02*
X138512731Y-112217200D01*
X138512731Y-112217200D02*
X138369874Y-112264819D01*
X138369874Y-112264819D02*
X138131779Y-112264819D01*
X139036541Y-111264819D02*
X139274636Y-112264819D01*
X139274636Y-112264819D02*
X139465112Y-111550533D01*
X139465112Y-111550533D02*
X139655588Y-112264819D01*
X139655588Y-112264819D02*
X139893684Y-111264819D01*
X140274636Y-112264819D02*
X140274636Y-111264819D01*
X140274636Y-111264819D02*
X140846064Y-112264819D01*
X140846064Y-112264819D02*
X140846064Y-111264819D01*
X138084160Y-102057200D02*
X138227017Y-102104819D01*
X138227017Y-102104819D02*
X138465112Y-102104819D01*
X138465112Y-102104819D02*
X138560350Y-102057200D01*
X138560350Y-102057200D02*
X138607969Y-102009580D01*
X138607969Y-102009580D02*
X138655588Y-101914342D01*
X138655588Y-101914342D02*
X138655588Y-101819104D01*
X138655588Y-101819104D02*
X138607969Y-101723866D01*
X138607969Y-101723866D02*
X138560350Y-101676247D01*
X138560350Y-101676247D02*
X138465112Y-101628628D01*
X138465112Y-101628628D02*
X138274636Y-101581009D01*
X138274636Y-101581009D02*
X138179398Y-101533390D01*
X138179398Y-101533390D02*
X138131779Y-101485771D01*
X138131779Y-101485771D02*
X138084160Y-101390533D01*
X138084160Y-101390533D02*
X138084160Y-101295295D01*
X138084160Y-101295295D02*
X138131779Y-101200057D01*
X138131779Y-101200057D02*
X138179398Y-101152438D01*
X138179398Y-101152438D02*
X138274636Y-101104819D01*
X138274636Y-101104819D02*
X138512731Y-101104819D01*
X138512731Y-101104819D02*
X138655588Y-101152438D01*
X139084160Y-101581009D02*
X139417493Y-101581009D01*
X139560350Y-102104819D02*
X139084160Y-102104819D01*
X139084160Y-102104819D02*
X139084160Y-101104819D01*
X139084160Y-101104819D02*
X139560350Y-101104819D01*
X140465112Y-102104819D02*
X139988922Y-102104819D01*
X139988922Y-102104819D02*
X139988922Y-101104819D01*
X126542969Y-53209819D02*
X126066779Y-53209819D01*
X126066779Y-53209819D02*
X126066779Y-52209819D01*
X126876303Y-53209819D02*
X126876303Y-52209819D01*
X126876303Y-52209819D02*
X127209636Y-52924104D01*
X127209636Y-52924104D02*
X127542969Y-52209819D01*
X127542969Y-52209819D02*
X127542969Y-53209819D01*
X128542969Y-53209819D02*
X127971541Y-53209819D01*
X128257255Y-53209819D02*
X128257255Y-52209819D01*
X128257255Y-52209819D02*
X128162017Y-52352676D01*
X128162017Y-52352676D02*
X128066779Y-52447914D01*
X128066779Y-52447914D02*
X127971541Y-52495533D01*
X129495350Y-53209819D02*
X128923922Y-53209819D01*
X129209636Y-53209819D02*
X129209636Y-52209819D01*
X129209636Y-52209819D02*
X129114398Y-52352676D01*
X129114398Y-52352676D02*
X129019160Y-52447914D01*
X129019160Y-52447914D02*
X128923922Y-52495533D01*
X130447731Y-53209819D02*
X129876303Y-53209819D01*
X130162017Y-53209819D02*
X130162017Y-52209819D01*
X130162017Y-52209819D02*
X130066779Y-52352676D01*
X130066779Y-52352676D02*
X129971541Y-52447914D01*
X129971541Y-52447914D02*
X129876303Y-52495533D01*
X130781065Y-52209819D02*
X131447731Y-52209819D01*
X131447731Y-52209819D02*
X131019160Y-53209819D01*
X101238207Y-116614580D02*
X101190588Y-116662200D01*
X101190588Y-116662200D02*
X101047731Y-116709819D01*
X101047731Y-116709819D02*
X100952493Y-116709819D01*
X100952493Y-116709819D02*
X100809636Y-116662200D01*
X100809636Y-116662200D02*
X100714398Y-116566961D01*
X100714398Y-116566961D02*
X100666779Y-116471723D01*
X100666779Y-116471723D02*
X100619160Y-116281247D01*
X100619160Y-116281247D02*
X100619160Y-116138390D01*
X100619160Y-116138390D02*
X100666779Y-115947914D01*
X100666779Y-115947914D02*
X100714398Y-115852676D01*
X100714398Y-115852676D02*
X100809636Y-115757438D01*
X100809636Y-115757438D02*
X100952493Y-115709819D01*
X100952493Y-115709819D02*
X101047731Y-115709819D01*
X101047731Y-115709819D02*
X101190588Y-115757438D01*
X101190588Y-115757438D02*
X101238207Y-115805057D01*
X102095350Y-116709819D02*
X102095350Y-116186009D01*
X102095350Y-116186009D02*
X102047731Y-116090771D01*
X102047731Y-116090771D02*
X101952493Y-116043152D01*
X101952493Y-116043152D02*
X101762017Y-116043152D01*
X101762017Y-116043152D02*
X101666779Y-116090771D01*
X102095350Y-116662200D02*
X102000112Y-116709819D01*
X102000112Y-116709819D02*
X101762017Y-116709819D01*
X101762017Y-116709819D02*
X101666779Y-116662200D01*
X101666779Y-116662200D02*
X101619160Y-116566961D01*
X101619160Y-116566961D02*
X101619160Y-116471723D01*
X101619160Y-116471723D02*
X101666779Y-116376485D01*
X101666779Y-116376485D02*
X101762017Y-116328866D01*
X101762017Y-116328866D02*
X102000112Y-116328866D01*
X102000112Y-116328866D02*
X102095350Y-116281247D01*
X102571541Y-116709819D02*
X102571541Y-115709819D01*
X102571541Y-116090771D02*
X102666779Y-116043152D01*
X102666779Y-116043152D02*
X102857255Y-116043152D01*
X102857255Y-116043152D02*
X102952493Y-116090771D01*
X102952493Y-116090771D02*
X103000112Y-116138390D01*
X103000112Y-116138390D02*
X103047731Y-116233628D01*
X103047731Y-116233628D02*
X103047731Y-116519342D01*
X103047731Y-116519342D02*
X103000112Y-116614580D01*
X103000112Y-116614580D02*
X102952493Y-116662200D01*
X102952493Y-116662200D02*
X102857255Y-116709819D01*
X102857255Y-116709819D02*
X102666779Y-116709819D01*
X102666779Y-116709819D02*
X102571541Y-116662200D01*
X103619160Y-116709819D02*
X103523922Y-116662200D01*
X103523922Y-116662200D02*
X103476303Y-116566961D01*
X103476303Y-116566961D02*
X103476303Y-115709819D01*
X104381065Y-116662200D02*
X104285827Y-116709819D01*
X104285827Y-116709819D02*
X104095351Y-116709819D01*
X104095351Y-116709819D02*
X104000113Y-116662200D01*
X104000113Y-116662200D02*
X103952494Y-116566961D01*
X103952494Y-116566961D02*
X103952494Y-116186009D01*
X103952494Y-116186009D02*
X104000113Y-116090771D01*
X104000113Y-116090771D02*
X104095351Y-116043152D01*
X104095351Y-116043152D02*
X104285827Y-116043152D01*
X104285827Y-116043152D02*
X104381065Y-116090771D01*
X104381065Y-116090771D02*
X104428684Y-116186009D01*
X104428684Y-116186009D02*
X104428684Y-116281247D01*
X104428684Y-116281247D02*
X103952494Y-116376485D01*
X105952494Y-116186009D02*
X106095351Y-116233628D01*
X106095351Y-116233628D02*
X106142970Y-116281247D01*
X106142970Y-116281247D02*
X106190589Y-116376485D01*
X106190589Y-116376485D02*
X106190589Y-116519342D01*
X106190589Y-116519342D02*
X106142970Y-116614580D01*
X106142970Y-116614580D02*
X106095351Y-116662200D01*
X106095351Y-116662200D02*
X106000113Y-116709819D01*
X106000113Y-116709819D02*
X105619161Y-116709819D01*
X105619161Y-116709819D02*
X105619161Y-115709819D01*
X105619161Y-115709819D02*
X105952494Y-115709819D01*
X105952494Y-115709819D02*
X106047732Y-115757438D01*
X106047732Y-115757438D02*
X106095351Y-115805057D01*
X106095351Y-115805057D02*
X106142970Y-115900295D01*
X106142970Y-115900295D02*
X106142970Y-115995533D01*
X106142970Y-115995533D02*
X106095351Y-116090771D01*
X106095351Y-116090771D02*
X106047732Y-116138390D01*
X106047732Y-116138390D02*
X105952494Y-116186009D01*
X105952494Y-116186009D02*
X105619161Y-116186009D01*
X94253207Y-53209819D02*
X93919874Y-52733628D01*
X93681779Y-53209819D02*
X93681779Y-52209819D01*
X93681779Y-52209819D02*
X94062731Y-52209819D01*
X94062731Y-52209819D02*
X94157969Y-52257438D01*
X94157969Y-52257438D02*
X94205588Y-52305057D01*
X94205588Y-52305057D02*
X94253207Y-52400295D01*
X94253207Y-52400295D02*
X94253207Y-52543152D01*
X94253207Y-52543152D02*
X94205588Y-52638390D01*
X94205588Y-52638390D02*
X94157969Y-52686009D01*
X94157969Y-52686009D02*
X94062731Y-52733628D01*
X94062731Y-52733628D02*
X93681779Y-52733628D01*
X94681779Y-52686009D02*
X95015112Y-52686009D01*
X95157969Y-53209819D02*
X94681779Y-53209819D01*
X94681779Y-53209819D02*
X94681779Y-52209819D01*
X94681779Y-52209819D02*
X95157969Y-52209819D01*
X95538922Y-53162200D02*
X95681779Y-53209819D01*
X95681779Y-53209819D02*
X95919874Y-53209819D01*
X95919874Y-53209819D02*
X96015112Y-53162200D01*
X96015112Y-53162200D02*
X96062731Y-53114580D01*
X96062731Y-53114580D02*
X96110350Y-53019342D01*
X96110350Y-53019342D02*
X96110350Y-52924104D01*
X96110350Y-52924104D02*
X96062731Y-52828866D01*
X96062731Y-52828866D02*
X96015112Y-52781247D01*
X96015112Y-52781247D02*
X95919874Y-52733628D01*
X95919874Y-52733628D02*
X95729398Y-52686009D01*
X95729398Y-52686009D02*
X95634160Y-52638390D01*
X95634160Y-52638390D02*
X95586541Y-52590771D01*
X95586541Y-52590771D02*
X95538922Y-52495533D01*
X95538922Y-52495533D02*
X95538922Y-52400295D01*
X95538922Y-52400295D02*
X95586541Y-52305057D01*
X95586541Y-52305057D02*
X95634160Y-52257438D01*
X95634160Y-52257438D02*
X95729398Y-52209819D01*
X95729398Y-52209819D02*
X95967493Y-52209819D01*
X95967493Y-52209819D02*
X96110350Y-52257438D01*
X96538922Y-52686009D02*
X96872255Y-52686009D01*
X97015112Y-53209819D02*
X96538922Y-53209819D01*
X96538922Y-53209819D02*
X96538922Y-52209819D01*
X96538922Y-52209819D02*
X97015112Y-52209819D01*
X97300827Y-52209819D02*
X97872255Y-52209819D01*
X97586541Y-53209819D02*
X97586541Y-52209819D01*
X93384761Y-75384819D02*
X92813333Y-75384819D01*
X93099047Y-75384819D02*
X93099047Y-74384819D01*
X93099047Y-74384819D02*
X93003809Y-74527676D01*
X93003809Y-74527676D02*
X92908571Y-74622914D01*
X92908571Y-74622914D02*
X92813333Y-74670533D01*
X94003809Y-74384819D02*
X94099047Y-74384819D01*
X94099047Y-74384819D02*
X94194285Y-74432438D01*
X94194285Y-74432438D02*
X94241904Y-74480057D01*
X94241904Y-74480057D02*
X94289523Y-74575295D01*
X94289523Y-74575295D02*
X94337142Y-74765771D01*
X94337142Y-74765771D02*
X94337142Y-75003866D01*
X94337142Y-75003866D02*
X94289523Y-75194342D01*
X94289523Y-75194342D02*
X94241904Y-75289580D01*
X94241904Y-75289580D02*
X94194285Y-75337200D01*
X94194285Y-75337200D02*
X94099047Y-75384819D01*
X94099047Y-75384819D02*
X94003809Y-75384819D01*
X94003809Y-75384819D02*
X93908571Y-75337200D01*
X93908571Y-75337200D02*
X93860952Y-75289580D01*
X93860952Y-75289580D02*
X93813333Y-75194342D01*
X93813333Y-75194342D02*
X93765714Y-75003866D01*
X93765714Y-75003866D02*
X93765714Y-74765771D01*
X93765714Y-74765771D02*
X93813333Y-74575295D01*
X93813333Y-74575295D02*
X93860952Y-74480057D01*
X93860952Y-74480057D02*
X93908571Y-74432438D01*
X93908571Y-74432438D02*
X94003809Y-74384819D01*
X94765714Y-75384819D02*
X94765714Y-74384819D01*
X94860952Y-75003866D02*
X95146666Y-75384819D01*
X95146666Y-74718152D02*
X94765714Y-75099104D01*
X119832571Y-91386819D02*
X119261143Y-91386819D01*
X119546857Y-91386819D02*
X119546857Y-90386819D01*
X119546857Y-90386819D02*
X119451619Y-90529676D01*
X119451619Y-90529676D02*
X119356381Y-90624914D01*
X119356381Y-90624914D02*
X119261143Y-90672533D01*
X120451619Y-90386819D02*
X120546857Y-90386819D01*
X120546857Y-90386819D02*
X120642095Y-90434438D01*
X120642095Y-90434438D02*
X120689714Y-90482057D01*
X120689714Y-90482057D02*
X120737333Y-90577295D01*
X120737333Y-90577295D02*
X120784952Y-90767771D01*
X120784952Y-90767771D02*
X120784952Y-91005866D01*
X120784952Y-91005866D02*
X120737333Y-91196342D01*
X120737333Y-91196342D02*
X120689714Y-91291580D01*
X120689714Y-91291580D02*
X120642095Y-91339200D01*
X120642095Y-91339200D02*
X120546857Y-91386819D01*
X120546857Y-91386819D02*
X120451619Y-91386819D01*
X120451619Y-91386819D02*
X120356381Y-91339200D01*
X120356381Y-91339200D02*
X120308762Y-91291580D01*
X120308762Y-91291580D02*
X120261143Y-91196342D01*
X120261143Y-91196342D02*
X120213524Y-91005866D01*
X120213524Y-91005866D02*
X120213524Y-90767771D01*
X120213524Y-90767771D02*
X120261143Y-90577295D01*
X120261143Y-90577295D02*
X120308762Y-90482057D01*
X120308762Y-90482057D02*
X120356381Y-90434438D01*
X120356381Y-90434438D02*
X120451619Y-90386819D01*
X121642095Y-90720152D02*
X121642095Y-91386819D01*
X121213524Y-90720152D02*
X121213524Y-91243961D01*
X121213524Y-91243961D02*
X121261143Y-91339200D01*
X121261143Y-91339200D02*
X121356381Y-91386819D01*
X121356381Y-91386819D02*
X121499238Y-91386819D01*
X121499238Y-91386819D02*
X121594476Y-91339200D01*
X121594476Y-91339200D02*
X121642095Y-91291580D01*
X122451619Y-90863009D02*
X122118286Y-90863009D01*
X122118286Y-91386819D02*
X122118286Y-90386819D01*
X122118286Y-90386819D02*
X122594476Y-90386819D01*
X105412142Y-86064164D02*
X104983571Y-86064164D01*
X105197856Y-86064164D02*
X105197856Y-85314164D01*
X105197856Y-85314164D02*
X105126428Y-85421307D01*
X105126428Y-85421307D02*
X105054999Y-85492735D01*
X105054999Y-85492735D02*
X104983571Y-85528450D01*
X106055000Y-85314164D02*
X105912142Y-85314164D01*
X105912142Y-85314164D02*
X105840714Y-85349878D01*
X105840714Y-85349878D02*
X105805000Y-85385592D01*
X105805000Y-85385592D02*
X105733571Y-85492735D01*
X105733571Y-85492735D02*
X105697857Y-85635592D01*
X105697857Y-85635592D02*
X105697857Y-85921307D01*
X105697857Y-85921307D02*
X105733571Y-85992735D01*
X105733571Y-85992735D02*
X105769285Y-86028450D01*
X105769285Y-86028450D02*
X105840714Y-86064164D01*
X105840714Y-86064164D02*
X105983571Y-86064164D01*
X105983571Y-86064164D02*
X106055000Y-86028450D01*
X106055000Y-86028450D02*
X106090714Y-85992735D01*
X106090714Y-85992735D02*
X106126428Y-85921307D01*
X106126428Y-85921307D02*
X106126428Y-85742735D01*
X106126428Y-85742735D02*
X106090714Y-85671307D01*
X106090714Y-85671307D02*
X106055000Y-85635592D01*
X106055000Y-85635592D02*
X105983571Y-85599878D01*
X105983571Y-85599878D02*
X105840714Y-85599878D01*
X105840714Y-85599878D02*
X105769285Y-85635592D01*
X105769285Y-85635592D02*
X105733571Y-85671307D01*
X105733571Y-85671307D02*
X105697857Y-85742735D01*
X106447857Y-86064164D02*
X106447857Y-85314164D01*
X106447857Y-85314164D02*
X106697857Y-85849878D01*
X106697857Y-85849878D02*
X106947857Y-85314164D01*
X106947857Y-85314164D02*
X106947857Y-86064164D01*
X107305000Y-86064164D02*
X107305000Y-85314164D01*
X107305000Y-85671307D02*
X107733571Y-85671307D01*
X107733571Y-86064164D02*
X107733571Y-85314164D01*
X108019285Y-85564164D02*
X108412143Y-85564164D01*
X108412143Y-85564164D02*
X108019285Y-86064164D01*
X108019285Y-86064164D02*
X108412143Y-86064164D01*
X111620057Y-81017856D02*
X111572438Y-80970237D01*
X111572438Y-80970237D02*
X111524819Y-80874999D01*
X111524819Y-80874999D02*
X111524819Y-80636904D01*
X111524819Y-80636904D02*
X111572438Y-80541666D01*
X111572438Y-80541666D02*
X111620057Y-80494047D01*
X111620057Y-80494047D02*
X111715295Y-80446428D01*
X111715295Y-80446428D02*
X111810533Y-80446428D01*
X111810533Y-80446428D02*
X111953390Y-80494047D01*
X111953390Y-80494047D02*
X112524819Y-81065475D01*
X112524819Y-81065475D02*
X112524819Y-80446428D01*
X111620057Y-80065475D02*
X111572438Y-80017856D01*
X111572438Y-80017856D02*
X111524819Y-79922618D01*
X111524819Y-79922618D02*
X111524819Y-79684523D01*
X111524819Y-79684523D02*
X111572438Y-79589285D01*
X111572438Y-79589285D02*
X111620057Y-79541666D01*
X111620057Y-79541666D02*
X111715295Y-79494047D01*
X111715295Y-79494047D02*
X111810533Y-79494047D01*
X111810533Y-79494047D02*
X111953390Y-79541666D01*
X111953390Y-79541666D02*
X112524819Y-80113094D01*
X112524819Y-80113094D02*
X112524819Y-79494047D01*
X111858152Y-79065475D02*
X112858152Y-79065475D01*
X111905771Y-79065475D02*
X111858152Y-78970237D01*
X111858152Y-78970237D02*
X111858152Y-78779761D01*
X111858152Y-78779761D02*
X111905771Y-78684523D01*
X111905771Y-78684523D02*
X111953390Y-78636904D01*
X111953390Y-78636904D02*
X112048628Y-78589285D01*
X112048628Y-78589285D02*
X112334342Y-78589285D01*
X112334342Y-78589285D02*
X112429580Y-78636904D01*
X112429580Y-78636904D02*
X112477200Y-78684523D01*
X112477200Y-78684523D02*
X112524819Y-78779761D01*
X112524819Y-78779761D02*
X112524819Y-78970237D01*
X112524819Y-78970237D02*
X112477200Y-79065475D01*
X112001009Y-77827380D02*
X112001009Y-78160713D01*
X112524819Y-78160713D02*
X111524819Y-78160713D01*
X111524819Y-78160713D02*
X111524819Y-77684523D01*
X100896057Y-80890856D02*
X100848438Y-80843237D01*
X100848438Y-80843237D02*
X100800819Y-80747999D01*
X100800819Y-80747999D02*
X100800819Y-80509904D01*
X100800819Y-80509904D02*
X100848438Y-80414666D01*
X100848438Y-80414666D02*
X100896057Y-80367047D01*
X100896057Y-80367047D02*
X100991295Y-80319428D01*
X100991295Y-80319428D02*
X101086533Y-80319428D01*
X101086533Y-80319428D02*
X101229390Y-80367047D01*
X101229390Y-80367047D02*
X101800819Y-80938475D01*
X101800819Y-80938475D02*
X101800819Y-80319428D01*
X100896057Y-79938475D02*
X100848438Y-79890856D01*
X100848438Y-79890856D02*
X100800819Y-79795618D01*
X100800819Y-79795618D02*
X100800819Y-79557523D01*
X100800819Y-79557523D02*
X100848438Y-79462285D01*
X100848438Y-79462285D02*
X100896057Y-79414666D01*
X100896057Y-79414666D02*
X100991295Y-79367047D01*
X100991295Y-79367047D02*
X101086533Y-79367047D01*
X101086533Y-79367047D02*
X101229390Y-79414666D01*
X101229390Y-79414666D02*
X101800819Y-79986094D01*
X101800819Y-79986094D02*
X101800819Y-79367047D01*
X101134152Y-78938475D02*
X102134152Y-78938475D01*
X101181771Y-78938475D02*
X101134152Y-78843237D01*
X101134152Y-78843237D02*
X101134152Y-78652761D01*
X101134152Y-78652761D02*
X101181771Y-78557523D01*
X101181771Y-78557523D02*
X101229390Y-78509904D01*
X101229390Y-78509904D02*
X101324628Y-78462285D01*
X101324628Y-78462285D02*
X101610342Y-78462285D01*
X101610342Y-78462285D02*
X101705580Y-78509904D01*
X101705580Y-78509904D02*
X101753200Y-78557523D01*
X101753200Y-78557523D02*
X101800819Y-78652761D01*
X101800819Y-78652761D02*
X101800819Y-78843237D01*
X101800819Y-78843237D02*
X101753200Y-78938475D01*
X101277009Y-77700380D02*
X101277009Y-78033713D01*
X101800819Y-78033713D02*
X100800819Y-78033713D01*
X100800819Y-78033713D02*
X100800819Y-77557523D01*
D11*
%TO.C,S1*%
X97401077Y-46355000D02*
G75*
G03*
X93778923Y-46355000I-1811077J0D01*
G01*
X93778923Y-46355000D02*
G75*
G03*
X97401077Y-46355000I1811077J0D01*
G01*
%TO.C,S4*%
X134601077Y-111760000D02*
G75*
G03*
X130978923Y-111760000I-1811077J0D01*
G01*
X130978923Y-111760000D02*
G75*
G03*
X134601077Y-111760000I1811077J0D01*
G01*
%TO.C,S3*%
X134601077Y-101600000D02*
G75*
G03*
X130978923Y-101600000I-1811077J0D01*
G01*
X130978923Y-101600000D02*
G75*
G03*
X134601077Y-101600000I1811077J0D01*
G01*
%TO.C,Se*%
X134601077Y-91440000D02*
G75*
G03*
X130978923Y-91440000I-1811077J0D01*
G01*
X130978923Y-91440000D02*
G75*
G03*
X134601077Y-91440000I1811077J0D01*
G01*
D12*
%TO.C,R1*%
X89940000Y-72390000D02*
X90710000Y-72390000D01*
X90710000Y-72020000D02*
X90710000Y-72760000D01*
X91710000Y-73760000D02*
X96250000Y-73760000D01*
X96250000Y-71020000D02*
X91710000Y-71020000D01*
X97250000Y-72760000D02*
X97250000Y-72020000D01*
X98020000Y-72390000D02*
X97250000Y-72390000D01*
X91710000Y-71020000D02*
G75*
G03*
X90710000Y-72020000I0J-1000000D01*
G01*
X90710000Y-72760000D02*
G75*
G03*
X91710000Y-73760000I1000000J0D01*
G01*
X97250000Y-72020000D02*
G75*
G03*
X96250000Y-71020000I-1000000J0D01*
G01*
X96250000Y-73760000D02*
G75*
G03*
X97250000Y-72760000I0J1000000D01*
G01*
%TO.C,Brd1*%
X99227000Y-108906890D02*
X99227000Y-96306893D01*
X101228892Y-94306894D02*
X123658336Y-94328111D01*
X123663661Y-110928106D02*
X101225109Y-110906889D01*
X125665552Y-108926661D02*
X125656443Y-96326664D01*
X101228892Y-94306894D02*
G75*
G03*
X99227000Y-96306893I-1891J-2000000D01*
G01*
X99227001Y-108906890D02*
G75*
G03*
X101225109Y-110906888I1999997J-2D01*
G01*
X125656448Y-96326664D02*
G75*
G03*
X123658336Y-94328112I-2000008J-1456D01*
G01*
X123663661Y-110928101D02*
G75*
G03*
X125665551Y-108926661I1899J1999991D01*
G01*
D11*
%TO.C,C3*%
X119106835Y-88831772D02*
G75*
G03*
X122669431Y-88853440I1787165J953772D01*
G01*
X122666985Y-87479201D02*
G75*
G03*
X119104389Y-87500869I-1775431J-975440D01*
G01*
D12*
%TO.C,Y1*%
X109905000Y-89520000D02*
X103655000Y-89520000D01*
X109905000Y-84470000D02*
X103655000Y-84470000D01*
X109905000Y-89520000D02*
G75*
G03*
X109905000Y-84470000I0J2525000D01*
G01*
X103655000Y-84470000D02*
G75*
G03*
X103655000Y-89520000I0J-2525000D01*
G01*
%TO.C,U4*%
X112300000Y-51475000D02*
X116310000Y-51475000D01*
X116310000Y-51475000D02*
X116310000Y-41235000D01*
X110300000Y-49475000D02*
X110300000Y-43235000D01*
X112300000Y-41235000D02*
X116310000Y-41235000D01*
X110300000Y-49475000D02*
G75*
G03*
X112300000Y-51475000I1999999J-1D01*
G01*
X112300000Y-41235000D02*
G75*
G03*
X110300000Y-43235000I0J-2000000D01*
G01*
%TO.C,U2*%
X89425000Y-78545000D02*
X89425000Y-113225000D01*
X89925000Y-113725000D02*
X94225000Y-113725000D01*
X91075000Y-78045000D02*
X89925000Y-78045000D01*
X94225000Y-78045000D02*
X93075000Y-78045000D01*
X94725000Y-113225000D02*
X94725000Y-78545000D01*
X89925000Y-78045000D02*
G75*
G03*
X89425000Y-78545000I0J-500000D01*
G01*
X89425000Y-113225000D02*
G75*
G03*
X89925000Y-113725000I500000J0D01*
G01*
X91075000Y-78045000D02*
G75*
G03*
X93075000Y-78045000I1000000J0D01*
G01*
X94725000Y-78545000D02*
G75*
G03*
X94225000Y-78045000I-500000J0D01*
G01*
X94225000Y-113725000D02*
G75*
G03*
X94725000Y-113225000I0J500000D01*
G01*
D10*
%TO.C,RTC1*%
X93972500Y-135437500D02*
X93972500Y-154297500D01*
X95972500Y-133437500D02*
X131342500Y-133437500D01*
X95972500Y-156297500D02*
X131342500Y-156297500D01*
X133342500Y-135437500D02*
X133342500Y-154297500D01*
X95972500Y-133437500D02*
G75*
G03*
X93972500Y-135437500I-1J-1999999D01*
G01*
X93972500Y-154297500D02*
G75*
G03*
X95972500Y-156297500I2000000J0D01*
G01*
X133342500Y-135437500D02*
G75*
G03*
X131342500Y-133437500I-2000000J0D01*
G01*
X131342500Y-156297500D02*
G75*
G03*
X133342500Y-154297500I0J2000000D01*
G01*
X121833493Y-144867500D02*
G75*
G03*
X104211507Y-144867500I-8810993J0D01*
G01*
X104211507Y-144867500D02*
G75*
G03*
X121833493Y-144867500I8810993J0D01*
G01*
D12*
%TO.C,J2*%
X107415000Y-113490000D02*
X107415000Y-116210000D01*
X108415000Y-117210000D02*
X118535000Y-117210000D01*
X118535000Y-112490000D02*
X108415000Y-112490000D01*
X119535000Y-116210000D02*
X119535000Y-113490000D01*
X108415000Y-112490000D02*
G75*
G03*
X107415000Y-113490000I-1J-999999D01*
G01*
X107415000Y-116210000D02*
G75*
G03*
X108415000Y-117210000I999999J-1D01*
G01*
X119535000Y-113490000D02*
G75*
G03*
X118535000Y-112490000I-1000000J0D01*
G01*
X118535000Y-117210000D02*
G75*
G03*
X119535000Y-116210000I0J1000000D01*
G01*
%TO.C,J3*%
X116995000Y-73835000D02*
X116995000Y-71115000D01*
X115995000Y-70115000D02*
X107875000Y-70115000D01*
X107875000Y-74835000D02*
X115995000Y-74835000D01*
X106875000Y-71115000D02*
X106875000Y-73835000D01*
X115995000Y-74835000D02*
G75*
G03*
X116995000Y-73835000I1J999999D01*
G01*
X116995000Y-71115000D02*
G75*
G03*
X115995000Y-70115000I-999999J1D01*
G01*
X106875000Y-73835000D02*
G75*
G03*
X107875000Y-74835000I1000000J0D01*
G01*
X107875000Y-70115000D02*
G75*
G03*
X106875000Y-71115000I0J-1000000D01*
G01*
%TO.C,J1*%
X119535000Y-130985000D02*
X119535000Y-128265000D01*
X118535000Y-127265000D02*
X108415000Y-127265000D01*
X108415000Y-131985000D02*
X118535000Y-131985000D01*
X107415000Y-128265000D02*
X107415000Y-130985000D01*
X118535000Y-131985000D02*
G75*
G03*
X119535000Y-130985000I1J999999D01*
G01*
X119535000Y-128265000D02*
G75*
G03*
X118535000Y-127265000I-999999J1D01*
G01*
X107415000Y-130985000D02*
G75*
G03*
X108415000Y-131985000I1000000J0D01*
G01*
X108415000Y-127265000D02*
G75*
G03*
X107415000Y-128265000I0J-1000000D01*
G01*
%TO.C,U1*%
X136620000Y-74890000D02*
X132610000Y-74890000D01*
X132610000Y-74890000D02*
X132610000Y-85130000D01*
X138620000Y-76890000D02*
X138620000Y-83130000D01*
X136620000Y-85130000D02*
X132610000Y-85130000D01*
X138620000Y-76890000D02*
G75*
G03*
X136620000Y-74890000I-1999999J1D01*
G01*
X136620000Y-85130000D02*
G75*
G03*
X138620000Y-83130000I0J2000000D01*
G01*
D13*
%TO.C,U3*%
X100416000Y-51467000D02*
X100416000Y-41243000D01*
X102416000Y-39243000D02*
X123054000Y-39243000D01*
X123054000Y-53467000D02*
X102416000Y-53467000D01*
X125054000Y-41243000D02*
X125054000Y-51467000D01*
X102416000Y-39243000D02*
G75*
G03*
X100416000Y-41243000I-1J-1999999D01*
G01*
X100416000Y-51467000D02*
G75*
G03*
X102416000Y-53467000I1999999J-1D01*
G01*
X125054000Y-41243000D02*
G75*
G03*
X123054000Y-39243000I-2000000J0D01*
G01*
X123054000Y-53467000D02*
G75*
G03*
X125054000Y-51467000I0J2000000D01*
G01*
D12*
%TO.C,J4*%
X106875000Y-55070000D02*
X106875000Y-57790000D01*
X107875000Y-58790000D02*
X115995000Y-58790000D01*
X115995000Y-54070000D02*
X107875000Y-54070000D01*
X116995000Y-57790000D02*
X116995000Y-55070000D01*
X107875000Y-54070000D02*
G75*
G03*
X106875000Y-55070000I-1J-999999D01*
G01*
X106875000Y-57790000D02*
G75*
G03*
X107875000Y-58790000I999999J-1D01*
G01*
X116995000Y-55070000D02*
G75*
G03*
X115995000Y-54070000I-1000000J0D01*
G01*
X115995000Y-58790000D02*
G75*
G03*
X116995000Y-57790000I0J1000000D01*
G01*
D11*
%TO.C,C2*%
X108526228Y-77617835D02*
G75*
G03*
X108504560Y-81180431I953772J-1787165D01*
G01*
X109878799Y-81177985D02*
G75*
G03*
X109857131Y-77615389I-975440J1775431D01*
G01*
%TO.C,C1*%
X103446228Y-77617835D02*
G75*
G03*
X103424560Y-81180431I953772J-1787165D01*
G01*
X104798799Y-81177985D02*
G75*
G03*
X104777131Y-77615389I-975440J1775431D01*
G01*
%TD*%
D14*
%TO.C,U3*%
X102194000Y-42545000D03*
D15*
X104734000Y-42545000D03*
X102194000Y-45085000D03*
X104734000Y-45085000D03*
X102194000Y-47625000D03*
X104734000Y-47625000D03*
X102194000Y-50165000D03*
X104734000Y-50165000D03*
%TD*%
M02*
