%TF.GenerationSoftware,KiCad,Pcbnew,7.0.10-7.0.10~ubuntu22.04.1*%
%TF.CreationDate,2024-03-21T08:58:38+05:30*%
%TF.ProjectId,Smart Watch,536d6172-7420-4576-9174-63682e6b6963,rev?*%
%TF.SameCoordinates,Original*%
%TF.FileFunction,Soldermask,Bot*%
%TF.FilePolarity,Negative*%
%FSLAX46Y46*%
G04 Gerber Fmt 4.6, Leading zero omitted, Abs format (unit mm)*
G04 Created by KiCad (PCBNEW 7.0.10-7.0.10~ubuntu22.04.1) date 2024-03-21 08:58:38*
%MOMM*%
%LPD*%
G01*
G04 APERTURE LIST*
G04 Aperture macros list*
%AMRoundRect*
0 Rectangle with rounded corners*
0 $1 Rounding radius*
0 $2 $3 $4 $5 $6 $7 $8 $9 X,Y pos of 4 corners*
0 Add a 4 corners polygon primitive as box body*
4,1,4,$2,$3,$4,$5,$6,$7,$8,$9,$2,$3,0*
0 Add four circle primitives for the rounded corners*
1,1,$1+$1,$2,$3*
1,1,$1+$1,$4,$5*
1,1,$1+$1,$6,$7*
1,1,$1+$1,$8,$9*
0 Add four rect primitives between the rounded corners*
20,1,$1+$1,$2,$3,$4,$5,0*
20,1,$1+$1,$4,$5,$6,$7,0*
20,1,$1+$1,$6,$7,$8,$9,0*
20,1,$1+$1,$8,$9,$2,$3,0*%
G04 Aperture macros list end*
%ADD10C,2.000000*%
%ADD11C,1.600000*%
%ADD12O,1.600000X1.600000*%
%ADD13O,1.600000X2.000000*%
%ADD14C,1.500000*%
%ADD15O,3.500000X3.500000*%
%ADD16R,2.000000X1.905000*%
%ADD17O,2.000000X1.905000*%
%ADD18R,1.600000X1.600000*%
%ADD19C,1.524000*%
%ADD20RoundRect,0.250000X-0.350000X-0.625000X0.350000X-0.625000X0.350000X0.625000X-0.350000X0.625000X0*%
%ADD21O,1.200000X1.750000*%
%ADD22RoundRect,0.250000X0.350000X0.625000X-0.350000X0.625000X-0.350000X-0.625000X0.350000X-0.625000X0*%
%ADD23R,1.727200X1.727200*%
%ADD24O,1.727200X1.727200*%
G04 APERTURE END LIST*
D10*
%TO.C,S1*%
X93340000Y-49605000D03*
X93340000Y-43105000D03*
X97840000Y-49605000D03*
X97840000Y-43105000D03*
%TD*%
%TO.C,S4*%
X129540000Y-109510000D03*
X136040000Y-109510000D03*
X129540000Y-114010000D03*
X136040000Y-114010000D03*
%TD*%
%TO.C,S3*%
X129540000Y-99350000D03*
X136040000Y-99350000D03*
X129540000Y-103850000D03*
X136040000Y-103850000D03*
%TD*%
%TO.C,Se*%
X129540000Y-89190000D03*
X136040000Y-89190000D03*
X129540000Y-93690000D03*
X136040000Y-93690000D03*
%TD*%
D11*
%TO.C,R1*%
X88900000Y-72390000D03*
D12*
X99060000Y-72390000D03*
%TD*%
D13*
%TO.C,Brd1*%
X108585000Y-92710000D03*
X111125000Y-92710000D03*
X113665000Y-92710000D03*
X116205000Y-92710000D03*
%TD*%
D11*
%TO.C,C3*%
X123364000Y-88138000D03*
X118364000Y-88138000D03*
%TD*%
D14*
%TO.C,Y1*%
X109220000Y-86995000D03*
X104340000Y-86995000D03*
%TD*%
D15*
%TO.C,U4*%
X113220000Y-46355000D03*
D16*
X129880000Y-48895000D03*
D17*
X129880000Y-46355000D03*
X129880000Y-43815000D03*
%TD*%
D18*
%TO.C,U2*%
X88265000Y-79375000D03*
D12*
X88265000Y-81915000D03*
X88265000Y-84455000D03*
X88265000Y-86995000D03*
X88265000Y-89535000D03*
X88265000Y-92075000D03*
X88265000Y-94615000D03*
X88265000Y-97155000D03*
X88265000Y-99695000D03*
X88265000Y-102235000D03*
X88265000Y-104775000D03*
X88265000Y-107315000D03*
X88265000Y-109855000D03*
X88265000Y-112395000D03*
X95885000Y-112395000D03*
X95885000Y-109855000D03*
X95885000Y-107315000D03*
X95885000Y-104775000D03*
X95885000Y-102235000D03*
X95885000Y-99695000D03*
X95885000Y-97155000D03*
X95885000Y-94615000D03*
X95885000Y-92075000D03*
X95885000Y-89535000D03*
X95885000Y-86995000D03*
X95885000Y-84455000D03*
X95885000Y-81915000D03*
X95885000Y-79375000D03*
%TD*%
D19*
%TO.C,RTC1*%
X132072500Y-141057500D03*
X132072500Y-143597500D03*
X132072500Y-146137500D03*
X132072500Y-148677500D03*
%TD*%
D20*
%TO.C,J2*%
X109475000Y-114300000D03*
D21*
X111475000Y-114300000D03*
X113475000Y-114300000D03*
X115475000Y-114300000D03*
X117475000Y-114300000D03*
%TD*%
D22*
%TO.C,J3*%
X114935000Y-73025000D03*
D21*
X112935000Y-73025000D03*
X110935000Y-73025000D03*
X108935000Y-73025000D03*
%TD*%
D22*
%TO.C,J1*%
X117475000Y-130175000D03*
D21*
X115475000Y-130175000D03*
X113475000Y-130175000D03*
X111475000Y-130175000D03*
X109475000Y-130175000D03*
%TD*%
D15*
%TO.C,U1*%
X135700000Y-80010000D03*
D16*
X119040000Y-77470000D03*
D17*
X119040000Y-80010000D03*
X119040000Y-82550000D03*
%TD*%
D23*
%TO.C,U3*%
X102194000Y-42545000D03*
D24*
X104734000Y-42545000D03*
X102194000Y-45085000D03*
X104734000Y-45085000D03*
X102194000Y-47625000D03*
X104734000Y-47625000D03*
X102194000Y-50165000D03*
X104734000Y-50165000D03*
%TD*%
D20*
%TO.C,J4*%
X108935000Y-55880000D03*
D21*
X110935000Y-55880000D03*
X112935000Y-55880000D03*
X114935000Y-55880000D03*
%TD*%
D11*
%TO.C,C2*%
X109220000Y-81875000D03*
X109220000Y-76875000D03*
%TD*%
%TO.C,C1*%
X104140000Y-81875000D03*
X104140000Y-76875000D03*
%TD*%
M02*
